<?xml version="1.0" encoding="UTF-8" standalone="no"?>
<!-- Created with Inkscape (http://www.inkscape.org/) -->

<svg
   xmlns:dc="http://purl.org/dc/elements/1.1/"
   xmlns:cc="http://creativecommons.org/ns#"
   xmlns:rdf="http://www.w3.org/1999/02/22-rdf-syntax-ns#"
   xmlns:svg="http://www.w3.org/2000/svg"
   xmlns="http://www.w3.org/2000/svg"
   xmlns:sodipodi="http://sodipodi.sourceforge.net/DTD/sodipodi-0.dtd"
   xmlns:inkscape="http://www.inkscape.org/namespaces/inkscape"
   version="1.1"
   id="svg2"
   width="83.657143"
   height="26.879999"
   viewBox="0 0 83.657143 26.879999"
   sodipodi:docname="howtouse.svg"
   inkscape:version="0.92.4 (5da689c313, 2019-01-14)">
  <metadata
     id="metadata8">
    <rdf:RDF>
      <cc:Work
         rdf:about="">
        <dc:format>image/svg+xml</dc:format>
        <dc:type
           rdf:resource="http://purl.org/dc/dcmitype/StillImage" />
        <dc:title />
      </cc:Work>
    </rdf:RDF>
  </metadata>
  <defs
     id="defs6" />
  <sodipodi:namedview
     pagecolor="#ffffff"
     bordercolor="#666666"
     borderopacity="1"
     objecttolerance="10"
     gridtolerance="10"
     guidetolerance="10"
     inkscape:pageopacity="0"
     inkscape:pageshadow="2"
     inkscape:window-width="1920"
     inkscape:window-height="1000"
     id="namedview4"
     showgrid="false"
     inkscape:zoom="8.7797622"
     inkscape:cx="-15.234478"
     inkscape:cy="13.44"
     inkscape:window-x="-11"
     inkscape:window-y="-11"
     inkscape:window-maximized="1"
     inkscape:current-layer="svg2" />
  <path
     style="fill:#660038;stroke-width:0.2742857;fill-opacity:1"
     d="m 73.213569,24.205713 c -1.108622,-0.565714 -2.052864,-1.156991 -2.098319,-1.313948 -0.04545,-0.156957 0.08621,-0.516292 0.292575,-0.798522 0.336607,-0.460334 0.527526,-0.482923 1.855126,-0.219487 0.813949,0.161511 1.508657,0.265808 1.543798,0.231772 0.195651,-0.189503 0.394846,-5.721639 0.236424,-6.566096 l -0.188031,-1.00229 h -3.784156 -3.784153 l -0.316311,1.028572 c -0.500701,1.628174 -2.334547,4.704999 -4.002172,6.714841 -1.70556,2.055562 -2.687734,2.819505 -3.31531,2.578681 -0.874322,-0.335509 -0.724696,-1.008361 0.632607,-2.844802 2.754045,-3.726241 4.414162,-7.757067 4.875991,-11.839097 l 0.189218,-1.67248 h -2.486142 c -2.676565,0 -3.805665,-0.275372 -4.082024,-0.995548 -0.372337,-0.970301 0.61446,-1.198738 5.178306,-1.198738 h 4.336147 V 4.114286 c 0,-1.828572 0.09143,-2.285715 0.548571,-2.742858 0.683287,-0.683287 1.423165,-0.700538 2.014632,-0.04697 0.344437,0.380598 0.45394,1.042254 0.45394,2.742858 v 2.241259 h 4.231836 c 3.531006,0 4.305246,0.07341 4.675101,0.443265 0.243797,0.243796 0.397152,0.583225 0.340789,0.754286 -0.265791,0.806694 -1.491697,0.988695 -6.686474,0.992691 l -5.25589,0.004 -0.175935,1.165715 c -0.09676,0.641142 -0.240848,1.505142 -0.320187,1.919999 l -0.144255,0.754286 h 4.118224 c 2.265021,0 4.427405,0.117551 4.805294,0.261224 0.468757,0.178222 0.778979,0.592196 0.976325,1.302857 0.34503,1.24248 0.361693,5.719793 0.03189,8.569224 -0.36155,3.123763 -1.293087,3.466746 -4.697439,1.729551 z M 5.7548275,24.406255 C 5.2563818,23.907809 5.214816,23.599662 5.3385984,21.320541 5.7203249,14.292077 5.7428336,11.103875 5.4070472,11.625214 4.4742704,13.073436 2.9610608,14.811428 2.632921,14.811428 c -0.2043061,0 -0.5353359,-0.197452 -0.7356219,-0.438781 C 1.5879865,13.999948 1.6460223,13.741768 2.2826508,12.658361 3.7610126,10.142501 5.8553316,5.859935 6.5951262,3.84 7.4886043,1.400447 8.3602264,0.544843 9.4473655,1.040177 10.426661,1.486374 10.575014,2.456913 9.8979028,3.987635 9.5831992,4.699075 9.3254809,5.296329 9.3251954,5.314866 c -2.743e-4,0.01854 1.4808576,-0.0044 3.2914286,-0.05099 l 3.291947,-0.0847 V 3.5921 c 0,-1.189192 0.125752,-1.700879 0.501598,-2.041015 1.214838,-1.099413 2.24126,-0.139238 2.24126,2.096606 v 1.547351 l 3.46778,0.07677 c 2.883226,0.06383 3.516284,0.153803 3.755523,0.533774 0.208575,0.331271 0.188547,0.576533 -0.07279,0.891429 -0.293422,0.353552 -0.992516,0.43442 -3.755523,0.43442 h -3.394986 v 0.822857 0.822857 h 2.420759 c 3.336879,0 3.511815,0.198004 3.768002,4.26486 0.166919,2.649758 0.13228,3.089201 -0.275661,3.497142 -0.576409,0.576408 -1.352933,0.598982 -1.896774,0.05514 -0.282633,-0.282633 -0.978371,-0.411428 -2.222486,-0.411428 -1.486281,0 -1.837268,0.08608 -1.957213,0.48 -0.08039,0.264 -0.43977,1.116404 -0.798631,1.894231 l -0.652474,1.414232 1.866924,0.981041 c 1.026808,0.539572 3.016288,1.288631 4.421068,1.664574 2.903912,0.777138 3.537681,1.28647 2.584803,2.077289 -0.819543,0.680159 -6.711174,-0.799225 -9.356265,-2.349352 L 15.357469,21.64396 14.193022,22.442224 C 12.367882,23.693412 10.160196,24.72604 9.5087622,24.633249 9.1390727,24.58059 8.8817799,24.320067 8.8283199,23.944266 8.7581393,23.450925 9.1747705,23.061005 11.097264,21.820788 l 2.35491,-1.519173 -0.986505,-1.434125 C 11.803026,17.904176 11.519647,17.221595 11.602476,16.7883 11.695131,16.303607 11.567972,16.083235 11.091,15.90189 10.06026,15.510004 9.813605,14.693674 9.9167164,12.015483 10.036884,8.894259 10.166862,8.777142 13.510643,8.777142 h 2.434366 L 15.858219,8.022857 15.771429,7.268571 12.617143,7.194161 C 10.132716,7.135555 9.3942948,7.028298 9.1400053,6.689097 8.8597254,6.315228 8.7602642,6.368453 8.3857196,7.092742 8.0220381,7.796025 7.9542857,9.193186 7.9542857,15.989582 c 0,7.462515 -0.037329,8.096321 -0.5015975,8.516478 -0.6566932,0.594299 -1.0254325,0.572623 -1.6978607,-0.0998 z m 9.8383575,-7.400541 c 0.2821,-0.809232 0.271401,-0.822857 -0.646125,-0.822857 h -0.932974 l 0.467242,0.821122 c 0.585809,1.029487 0.75349,1.029749 1.111857,0.0017 z M 15.908571,12.48 V 10.971428 H 14.262857 12.617143 V 12.48 13.988571 h 1.645714 1.645714 z m 5.980049,0.06857 -0.08291,-1.44 -1.577143,-0.08226 -1.577142,-0.08226 v 1.52226 1.522259 h 1.660048 1.660048 z M 36.431866,22.893822 C 35.40601,22.336757 34.611489,20.04222 34.227854,16.528762 33.807165,12.675937 34.313444,5.430393 35.07614,4.388571 c 0.645482,-0.88171 1.160906,-0.970378 1.945876,-0.334748 0.626417,0.507241 0.628849,0.534072 0.318147,3.508663 -0.513345,4.914643 -0.328926,11.43732 0.34235,12.108598 0.09628,0.09628 0.647942,-0.09073 1.225914,-0.415566 0.90373,-0.507924 1.121598,-0.538896 1.556059,-0.22121 0.48416,0.354027 0.47221,0.4346 -0.286991,1.935136 -0.744272,1.471027 -1.757412,2.36152 -2.655302,2.333859 -0.196063,-0.006 -0.68671,-0.190306 -1.090327,-0.409481 z m 13.019163,-4.585251 c -0.348801,-0.381267 -0.686315,-1.334359 -0.883065,-2.493655 -0.393576,-2.319047 -1.470528,-5.783795 -2.519062,-8.104283 -0.959551,-2.123559 -1.008058,-2.77349 -0.207004,-2.77349 1.773622,0 5.308553,6.755605 6.124795,11.705089 0.156526,0.949135 0.09144,1.242494 -0.380355,1.714286 -0.736847,0.736848 -1.43161,0.721248 -2.135309,-0.04795 z"
     id="path817"
     inkscape:connector-curvature="0" />
</svg>
