<?xml version="1.0" encoding="UTF-8" standalone="no"?>
<!-- Created with Inkscape (http://www.inkscape.org/) -->

<svg
   xmlns:dc="http://purl.org/dc/elements/1.1/"
   xmlns:cc="http://creativecommons.org/ns#"
   xmlns:rdf="http://www.w3.org/1999/02/22-rdf-syntax-ns#"
   xmlns:svg="http://www.w3.org/2000/svg"
   xmlns="http://www.w3.org/2000/svg"
   xmlns:sodipodi="http://sodipodi.sourceforge.net/DTD/sodipodi-0.dtd"
   xmlns:inkscape="http://www.inkscape.org/namespaces/inkscape"
   version="1.1"
   id="svg837"
   width="235"
   height="98"
   viewBox="0 0 235 98"
   sodipodi:docname="qa.svg"
   inkscape:version="0.92.4 (5da689c313, 2019-01-14)">
  <metadata
     id="metadata843">
    <rdf:RDF>
      <cc:Work
         rdf:about="">
        <dc:format>image/svg+xml</dc:format>
        <dc:type
           rdf:resource="http://purl.org/dc/dcmitype/StillImage" />
        <dc:title></dc:title>
      </cc:Work>
    </rdf:RDF>
  </metadata>
  <defs
     id="defs841" />
  <sodipodi:namedview
     pagecolor="#ffffff"
     bordercolor="#666666"
     borderopacity="1"
     objecttolerance="10"
     gridtolerance="10"
     guidetolerance="10"
     inkscape:pageopacity="0"
     inkscape:pageshadow="2"
     inkscape:window-width="1920"
     inkscape:window-height="1000"
     id="namedview839"
     showgrid="false"
     inkscape:zoom="2.4081633"
     inkscape:cx="13.478814"
     inkscape:cy="49"
     inkscape:window-x="-11"
     inkscape:window-y="-11"
     inkscape:window-maximized="1"
     inkscape:current-layer="svg837" />
  <path
     style="fill:#880e4f;fill-opacity:0.94117647"
     d="M 30.665216,84.964625 C 20.63205,82.443474 12.367491,75.33131 8.8227892,66.167865 5.6203586,57.88923 5.14164,44.480566 7.7534947,36.217474 14.242812,15.6873 37.672483,6.033713 55.563556,16.518579 70.694677,25.386007 76.207329,50.858554 66.846441,68.653888 l -2.868739,5.45356 2.563274,3.873368 c 3.06718,4.634822 2.84081,7.399382 -0.639268,7.807076 -1.725466,0.202139 -3.397722,-0.630283 -5.341067,-2.658698 l -2.829128,-2.952973 -5.088195,2.555656 c -5.672402,2.849085 -15.537147,3.851241 -21.978102,2.232748 z M 48.514807,74.773363 c 2.281513,-1.039527 2.207008,-1.186177 -4.130317,-8.129814 -7.076551,-7.753587 -7.946829,-10.625518 -4.00291,-13.209673 3.667873,-2.403283 5.384836,-1.566199 11.405282,5.560507 3.019705,3.574578 5.806065,6.63045 6.191909,6.790826 1.254698,0.521515 4.149676,-8.145776 4.698869,-14.067971 1.917257,-20.674665 -14.962776,-36.260251 -31.255468,-28.858639 -8.76777,3.983113 -13.491423,13.316538 -13.491423,26.657587 0,15.230061 5.260335,23.703848 16.5,26.579583 3.477401,0.889713 10.721889,0.2095 14.084058,-1.322406 z M 101.27099,85.099534 C 92.677365,82.879145 86.930749,75.823863 86.930749,67.493616 c 0,-5.56089 3.646432,-12.327634 8.694015,-16.133627 2.306708,-1.73931 4.744986,-3.346041 5.418396,-3.570511 0.857,-0.285664 0.34869,-2.191656 -1.694015,-6.351995 -5.429532,-11.058266 -3.237521,-20.322076 6.064425,-25.629285 6.06743,-3.461758 15.72497,-3.266383 21.31232,0.431153 11.33124,7.498659 9.07334,21.616662 -4.65118,29.082508 l -5.19918,2.828243 3.97249,4.671757 c 2.18487,2.569466 5.69159,6.635102 7.7927,9.034745 l 3.82022,4.362989 3.4849,-6.170108 c 6.33067,-11.208599 7.40635,-12.555869 10.02474,-12.555869 1.92067,0 2.52773,0.584085 2.76824,2.663475 0.35231,3.045893 -4.32287,12.918012 -8.42809,17.796795 l -2.74168,3.258297 2.43085,1.893693 c 3.83174,2.98502 6.85529,3.383241 10.55597,1.39029 2.71581,-1.46256 3.60271,-1.558358 4.84928,-0.523792 2.41981,2.008262 1.79586,4.576765 -1.90012,7.82188 -5.97641,5.24736 -11.90072,5.341562 -18.9924,0.301998 l -3.91812,-2.784337 -5.62791,2.902539 c -4.33317,2.234788 -7.34275,2.994441 -13.08188,3.302013 -4.09968,0.21971 -8.87586,0.03209 -10.61373,-0.416933 z m 18.40976,-9.078988 c 4.82746,-2.191264 5.11204,-2.944168 2.12499,-5.621942 -1.58118,-1.41746 -12.61235,-14.554142 -14.47254,-17.234891 -0.51221,-0.738151 -5.37686,3.141898 -6.9507,5.543884 -2.241139,3.420411 -2.314404,11.320499 -0.13582,14.645439 3.02693,4.619684 12.32247,5.895584 19.43407,2.66751 z m -1.09493,-37.286057 c 9.58594,-6.530602 8.0763,-17.740872 -2.38909,-17.740872 -8.81896,0 -11.62812,6.889322 -6.58634,16.152725 2.90083,5.329773 3.36319,5.411586 8.97543,1.588147 z m 47.54493,46.059127 c -0.66,-0.66 -1.2,-1.996544 -1.2,-2.970099 0,-3.851562 23.07697,-66.347071 25.13905,-68.0799 4.1722,-3.506024 8.25012,-1.835247 11.60174,4.753384 5.45349,10.720496 27.25921,60.718789 27.25921,62.502592 0,2.576963 -3.9776,4.467446 -7.52583,3.576896 -2.18708,-0.548921 -3.41938,-2.304345 -6.77519,-9.651286 l -4.10188,-8.980327 -15.39368,0.27437 -15.39369,0.27437 -3.41593,8.5 c -4.10326,10.21033 -6.99931,12.994495 -10.1938,9.8 z m 40.31034,-28.55 c -0.387,-0.9625 -2.9469,-7.6 -5.68867,-14.75 -2.74177,-7.15 -5.33382,-13.363034 -5.7601,-13.806744 -0.64917,-0.675712 -11.12981,27.285942 -11.07851,29.556744 0.009,0.4125 5.24008,0.75 11.62393,0.75 10.65566,0 11.54932,-0.143433 10.90335,-1.75 z"
     id="path1390"
     inkscape:connector-curvature="0" />
</svg>
